<svg width="31" height="30" viewBox="0 0 31 30" fill="none" xmlns="http://www.w3.org/2000/svg">
<path d="M30.6607 15C30.6607 6.71484 23.9698 0 15.7143 0C7.45869 0 0.767822 6.71484 0.767822 15C0.767822 23.2852 7.45869 30 15.7143 30C15.8018 30 15.8894 30 15.977 29.9941V18.3223H12.7658V14.5664H15.977V11.8008C15.977 8.5957 17.927 6.84961 20.7762 6.84961C22.1424 6.84961 23.3159 6.94922 23.6546 6.99609V10.3477H21.6928C20.1457 10.3477 19.8421 11.0859 19.8421 12.1699V14.5605H23.5495L23.0649 18.3164H19.8421V29.4199C26.0892 27.6211 30.6607 21.8496 30.6607 15Z" fill="#C5AC2D"/>
</svg>
