<svg width="37" height="36" viewBox="0 0 37 36" fill="none" xmlns="http://www.w3.org/2000/svg">
<path d="M21.3781 10.6844C20.9911 10.6844 20.6772 10.9995 20.6772 11.3876C20.6772 11.7754 20.9911 12.0905 21.3781 12.0905C21.7651 12.0905 22.0789 11.7754 22.0789 11.3876C22.0789 10.9995 21.7651 10.6844 21.3781 10.6844Z" fill="#332208"/>
<path d="M17.1289 24.4172C17.4023 24.1422 17.4023 23.6973 17.1289 23.4223C16.8553 23.1482 16.4119 23.1482 16.138 23.4223C15.8648 23.6973 15.8648 24.1422 16.138 24.4172C16.4119 24.6913 16.8553 24.6913 17.1289 24.4172Z" fill="#332208"/>
<path d="M8.70934 35.7921C8.98091 36.0668 9.42304 36.0698 9.69817 35.7979L13.095 32.4405C13.6721 31.8615 13.8476 31.0043 13.5938 30.2591L14.3245 29.5522C14.7179 29.1709 15.2358 28.9608 15.7834 28.9608H25.0976C26.75 28.9608 28.3118 28.3242 29.4958 27.1681C29.5446 27.1206 29.126 27.6153 35.8502 19.5524C36.8475 18.3686 36.6983 16.591 35.5173 15.5893C34.3436 14.597 32.5855 14.7395 31.5855 15.903L27.4511 20.1663C26.9291 19.5216 26.133 19.1198 25.2728 19.1198H17.4599C16.3481 18.6532 15.1685 18.417 13.9513 18.417C10.5786 18.417 7.63208 19.9792 6.05056 22.9115C5.38449 22.7848 4.68202 22.987 4.17665 23.494L0.843593 26.8479C0.571473 27.1217 0.570925 27.5647 0.842498 27.8391L8.70934 35.7921ZM13.9511 19.8227C15.0242 19.8227 16.0618 20.0394 17.0355 20.4667C17.1242 20.5057 17.2198 20.5258 17.3164 20.5258H25.2728C26.0325 20.5258 26.6742 21.1473 26.6742 21.9315C26.6742 22.7068 26.0456 23.3375 25.2728 23.3375H19.5564C19.1695 23.3375 18.8558 23.6522 18.8558 24.0403C18.8558 24.4287 19.1695 24.7432 19.5564 24.7432H25.2728C26.8182 24.7432 28.0753 23.4819 28.0753 21.9315C28.0753 21.8079 28.0665 21.6854 28.0507 21.564C32.0501 17.4394 32.614 16.8599 32.6381 16.8311C33.1374 16.2397 34.0239 16.1647 34.6136 16.6635C35.2038 17.1642 35.2785 18.053 34.7778 18.6477L28.4936 26.1849C27.576 27.0687 26.3711 27.5551 25.0976 27.5551H15.7834C14.8706 27.5551 14.0066 27.9053 13.3513 28.5406L12.7558 29.1171L7.26688 23.6105C8.54973 21.1959 10.9569 19.8227 13.9511 19.8227ZM5.16822 24.4875C5.39927 24.2556 5.75407 24.2139 6.03577 24.3886C6.14281 24.454 12.1355 30.4811 12.1724 30.5308C12.3775 30.8079 12.3482 31.2015 12.1081 31.4426L9.21224 34.3049L2.32793 27.3453L5.16822 24.4875Z" fill="#332208"/>
<path d="M11.5692 14.9022H28.3846C29.5437 14.9022 30.4865 13.9562 30.4865 12.7933C30.4865 11.0215 30.4865 3.38297 30.4865 2.10883C30.4865 0.945925 29.5437 0 28.3846 0H11.5692C10.4101 0 9.46729 0.945925 9.46729 2.10883V12.7933C9.46729 13.9562 10.4101 14.9022 11.5692 14.9022ZM29.0851 5.62336H10.8687V4.21766H29.0851V5.62336ZM28.3846 13.4965H11.5692C11.183 13.4965 10.8687 13.1809 10.8687 12.7933V7.02934H29.0851V12.7933C29.0851 13.1809 28.7709 13.4965 28.3846 13.4965ZM11.5692 1.40598H28.3846C28.7709 1.40598 29.0851 1.72129 29.0851 2.10883V2.81168H10.8687V2.10883C10.8687 1.72129 11.183 1.40598 11.5692 1.40598Z" fill="#332208"/>
<path d="M26.9831 10.6844H24.1805C23.7937 10.6844 23.48 10.9992 23.48 11.3876C23.48 11.7757 23.7937 12.0905 24.1805 12.0905H26.9831C27.3702 12.0905 27.6839 11.7757 27.6839 11.3876C27.6839 10.9992 27.3702 10.6844 26.9831 10.6844Z" fill="#332208"/>
</svg>
