<svg width="61" height="24" viewBox="0 0 61 24" fill="none" xmlns="http://www.w3.org/2000/svg">
<path d="M25.3035 8.9989H29.2886V10.999H25.3035V8.9989Z" fill="#332208"/>
<path d="M59.3234 6.00937L52.5549 5.03941C51.3207 4.27858 50.0399 3.59749 48.7194 2.99981C44.3584 1.01758 39.6252 -0.00526887 34.8372 2.04093e-05H33.6614C28.0111 0.00408898 22.4512 1.42689 17.4885 4.13862L14.0726 6.00856C10.0741 6.05372 6.15261 7.12092 2.67874 9.10803C1.26697 9.92054 0.395255 11.428 0.392822 13.0607V18.998C0.392822 19.5505 0.838815 19.9981 1.38941 19.9981H4.73517C5.82339 23.1134 9.22226 24.7539 12.3268 23.6619C14.0357 23.061 15.379 21.7126 15.9778 19.9981H42.5995C43.6877 23.1134 47.0866 24.7539 50.1911 23.6619C51.8997 23.061 53.2433 21.7126 53.8422 19.9981H54.1998C54.3267 19.9981 54.4524 19.9741 54.5704 19.9269L57.7977 18.6274C59.2395 18.0545 60.1838 16.6541 60.1785 15.0987V6.99927C60.1785 6.50208 59.814 6.08016 59.3234 6.00937ZM14.262 18.7983C13.8213 20.9624 11.7158 22.3583 9.55919 21.916C7.4022 21.4738 6.01111 19.361 6.45183 17.1964C6.89296 15.0323 8.99845 13.6364 11.155 14.0787C13.0108 14.4591 14.3431 16.0975 14.3427 17.9984C14.3427 18.2669 14.3155 18.535 14.262 18.7983ZM32.2784 17.9984H16.3354C16.3354 14.6849 13.6591 11.9988 10.3571 11.9988C7.05514 11.9988 4.37837 14.6849 4.37837 17.9984H2.3856V13.0607C2.38681 12.1448 2.87578 11.299 3.66803 10.8441C6.91972 8.98109 10.5988 8.00055 14.3427 7.99933H32.2784V17.9984ZM32.2784 5.99961H18.2508L18.4429 5.89423C22.703 3.57105 27.435 2.25404 32.2784 2.04369V5.99961ZM34.2712 1.99975H34.8352C38.8508 1.99527 42.8298 2.76017 46.5595 4.25376L44.8198 5.99961H34.2712V1.99975ZM52.1263 18.7983C51.6856 20.9624 49.5801 22.3583 47.4231 21.916C45.2666 21.4738 43.8755 19.361 44.3162 17.1964C44.7569 15.0323 46.8628 13.6364 49.0194 14.0787C50.8751 14.4591 52.2074 16.0975 52.207 17.9984C52.207 18.2669 52.1799 18.535 52.1263 18.7983ZM58.1857 8.99899H55.1964V10.9991H58.1857V15.0987C58.1882 15.8355 57.7406 16.4987 57.0578 16.7692L54.1998 17.9211C54.1998 17.8291 54.188 17.738 54.1819 17.646C54.1759 17.5541 54.1738 17.4463 54.1641 17.3462C54.154 17.2461 54.1341 17.146 54.1183 17.0463C54.1021 16.9462 54.0903 16.8461 54.0705 16.7554C54.0506 16.6643 54.0214 16.5634 53.9954 16.4682C53.9695 16.3734 53.9496 16.2773 53.9196 16.1842C53.89 16.0914 53.8539 16.0023 53.8203 15.9112C53.7862 15.8204 53.7554 15.7265 53.7206 15.6361C53.6857 15.5462 53.6387 15.4644 53.5969 15.3794C53.5551 15.2944 53.5142 15.2012 53.4676 15.1153C53.4205 15.0295 53.3678 14.9563 53.3228 14.8765C53.2782 14.7964 53.2235 14.7052 53.1667 14.6235C53.1095 14.5413 53.0568 14.4766 53.0021 14.4025C52.9474 14.3285 52.8853 14.2414 52.8217 14.1645C52.758 14.0876 52.6984 14.0274 52.6364 13.9643C52.5748 13.9017 52.5058 13.8166 52.4373 13.7467C52.3684 13.6767 52.3007 13.6214 52.2322 13.5595C52.1632 13.4977 52.0894 13.4244 52.0136 13.3593C51.9382 13.2946 51.8612 13.2446 51.7858 13.1876C51.7099 13.1307 51.6341 13.0696 51.5546 13.0163C51.4748 12.9635 51.3852 12.9167 51.2996 12.8605C51.2137 12.8044 51.1439 12.7604 51.0632 12.7177C50.9826 12.6746 50.882 12.6294 50.7904 12.5855C50.6987 12.5415 50.627 12.5025 50.5422 12.4667C50.4575 12.4305 50.3428 12.3926 50.2434 12.3568C50.1437 12.3206 50.0788 12.2925 49.9941 12.2657C49.8806 12.2307 49.7642 12.2055 49.6482 12.1766C49.5724 12.1587 49.4998 12.1347 49.4232 12.1188C49.3008 12.0936 49.1751 12.0798 49.0506 12.0614C48.9768 12.0517 48.9063 12.0354 48.8325 12.0285C48.633 12.0085 48.4339 11.9976 48.2247 11.9976C44.924 12.0008 42.2492 14.6849 42.246 17.9972H34.2716V7.99893H45.2321C45.4964 7.99893 45.7499 7.89355 45.9364 7.70599L48.5203 5.11305C49.6049 5.63099 50.6594 6.20995 51.6791 6.8471C51.7967 6.92074 51.9281 6.96916 52.0655 6.98909L58.1857 7.86588V8.99899Z" fill="#332208"/>
</svg>
