<svg width="48" height="32" viewBox="0 0 48 32" fill="none" xmlns="http://www.w3.org/2000/svg">
<path d="M28.5531 6.34916C28.5551 5.5676 28.3293 4.80304 27.9045 4.15225C27.4796 3.50146 26.8748 2.99372 26.1665 2.69328C25.4583 2.39285 24.6784 2.31325 23.9257 2.46454C23.173 2.61583 22.4813 2.99123 21.9382 3.5432C21.395 4.09517 21.0248 4.7989 20.8745 5.5653C20.7241 6.33171 20.8004 7.12632 21.0936 7.84856C21.3868 8.57079 21.8837 9.18817 22.5215 9.62255C23.1593 10.0569 23.9093 10.2888 24.6765 10.2887C25.7031 10.2888 26.6877 9.87405 27.4145 9.1355C28.1412 8.39695 28.5507 7.39489 28.5531 6.34916ZM24.6765 9.12507C24.138 9.12316 23.6121 8.95873 23.1653 8.65256C22.7184 8.34639 22.3707 7.91221 22.1659 7.40483C21.9611 6.89746 21.9085 6.33965 22.0147 5.80183C22.1209 5.26402 22.3811 4.77032 22.7626 4.38308C23.144 3.99584 23.6296 3.73242 24.1579 3.62609C24.6862 3.51976 25.2336 3.57528 25.7309 3.78564C26.2283 3.996 26.6533 4.35177 26.9523 4.80803C27.2513 5.26429 27.4109 5.80057 27.4109 6.34916C27.4088 7.08638 27.1197 7.79267 26.6071 8.31307C26.0945 8.83347 25.4002 9.12549 24.6765 9.12507Z" fill="#332208"/>
<path d="M12.0727 16.1069C11.5435 16.1081 11.0266 16.2691 10.5872 16.5696C10.1478 16.87 9.8057 17.2963 9.60406 17.7947C9.40242 18.2931 9.35031 18.8412 9.45431 19.3698C9.55832 19.8983 9.81377 20.3836 10.1884 20.7643C10.563 21.145 11.04 21.4041 11.5591 21.5088C12.0782 21.6135 12.6161 21.5591 13.1049 21.3525C13.5937 21.1459 14.0114 20.7964 14.3052 20.3481C14.5991 19.8998 14.7559 19.3728 14.7559 18.8337C14.7542 18.1099 14.4708 17.4163 13.9678 16.9051C13.4648 16.3939 12.7832 16.1068 12.0727 16.1069ZM12.0727 20.397C11.7694 20.3958 11.4734 20.303 11.2218 20.1305C10.9703 19.9579 10.7746 19.7133 10.6594 19.4275C10.5442 19.1418 10.5147 18.8276 10.5746 18.5248C10.6345 18.222 10.7812 17.944 10.9961 17.726C11.2109 17.508 11.4844 17.3598 11.7819 17.3C12.0794 17.2402 12.3876 17.2715 12.6677 17.39C12.9477 17.5085 13.1871 17.7089 13.3554 17.9658C13.5238 18.2228 13.6136 18.5248 13.6136 18.8337C13.6124 19.2491 13.4495 19.647 13.1606 19.9402C12.8717 20.2333 12.4805 20.3978 12.0727 20.3974V20.397Z" fill="#332208"/>
<path d="M29.0234 21.1766C28.5699 21.1776 28.1269 21.3156 27.7504 21.573C27.3738 21.8304 27.0806 22.1957 26.9078 22.6228C26.7349 23.0499 26.6902 23.5197 26.7793 23.9726C26.8684 24.4256 27.0873 24.8415 27.4083 25.1678C27.7293 25.4941 28.1381 25.7162 28.5829 25.8059C29.0278 25.8957 29.4887 25.8491 29.9076 25.6721C30.3265 25.495 30.6844 25.1955 30.9363 24.8113C31.1881 24.4271 31.3225 23.9755 31.3225 23.5135C31.3211 22.8932 31.0783 22.2988 30.6473 21.8607C30.2163 21.4226 29.6323 21.1766 29.0234 21.1766ZM29.0234 24.6868C28.7959 24.6858 28.5737 24.6161 28.385 24.4866C28.1962 24.357 28.0494 24.1734 27.963 23.9589C27.8767 23.7444 27.8546 23.5087 27.8996 23.2814C27.9446 23.0542 28.0547 22.8456 28.216 22.682C28.3773 22.5185 28.5825 22.4072 28.8058 22.3624C29.029 22.3175 29.2603 22.3411 29.4705 22.43C29.6806 22.519 29.8602 22.6694 29.9865 22.8622C30.1129 23.055 30.1803 23.2817 30.1803 23.5135C30.1792 23.8253 30.0568 24.1239 29.84 24.3438C29.6231 24.5638 29.3294 24.6871 29.0234 24.6867V24.6868Z" fill="#332208"/>
<path d="M41.2366 13.2186C41.6901 13.2176 42.1332 13.0797 42.5097 12.8222C42.8863 12.5648 43.1795 12.1995 43.3524 11.7724C43.5252 11.3453 43.5699 10.8755 43.4808 10.4226C43.3917 9.96959 43.1728 9.55367 42.8518 9.22737C42.5308 8.90106 42.122 8.67901 41.6772 8.58926C41.2323 8.49951 40.7713 8.5461 40.3524 8.72313C39.9336 8.90016 39.5756 9.19969 39.3238 9.58389C39.0719 9.96808 38.9375 10.4197 38.9375 10.8817C38.9389 11.502 39.1817 12.0964 39.6127 12.5345C40.0437 12.9726 40.6278 13.2186 41.2366 13.2186ZM41.2366 9.70836C41.4642 9.70939 41.6864 9.77909 41.8751 9.90864C42.0639 10.0382 42.2107 10.2218 42.2971 10.4363C42.3835 10.6508 42.4055 10.8865 42.3605 11.1138C42.3155 11.341 42.2054 11.5496 42.0441 11.7132C41.8828 11.8767 41.6776 11.988 41.4543 12.0328C41.231 12.0777 40.9997 12.0541 40.7896 11.9652C40.5794 11.8762 40.3998 11.7258 40.2735 11.533C40.1472 11.3402 40.0797 11.1135 40.0797 10.8817C40.0808 10.5699 40.2032 10.2713 40.42 10.0513C40.6369 9.83137 40.9306 9.70802 41.2366 9.70836Z" fill="#332208"/>
<path d="M42.9018 15.4714L44.4081 13.4262C44.9883 12.6544 45.2769 11.696 45.2212 10.7256C45.0856 8.60818 43.3831 6.94934 41.3454 6.94934C39.3076 6.94934 37.6054 8.60818 37.4695 10.7251C37.4401 11.2058 37.4988 11.6878 37.6427 12.1466L28.2225 12.3226L29.6763 10.3476C30.6042 9.11485 31.0661 7.58334 30.9777 6.0325C30.8777 4.44611 30.2157 2.95066 29.1148 1.82407C28.5476 1.2458 27.8741 0.787061 27.1328 0.474078C26.3914 0.161095 25.5968 0 24.7944 0C23.9919 0 23.1973 0.161095 22.456 0.474078C21.7147 0.787061 21.0412 1.2458 20.474 1.82407C19.3732 2.95039 18.7113 4.44548 18.6111 6.03153C18.514 7.5104 18.9746 9.04085 19.912 10.3466L21.1696 12.0542L7.78316 12.144C7.66468 12.1448 7.54938 12.1831 7.45322 12.2537C7.35707 12.3242 7.28482 12.4234 7.24649 12.5376L0.96992 31.23C0.940525 31.3176 0.932069 31.411 0.945253 31.5026C0.958438 31.5942 0.992882 31.6813 1.04573 31.7566C1.09857 31.8319 1.16829 31.8932 1.24909 31.9356C1.32989 31.9779 1.41944 32 1.5103 32H47.2003C47.2899 32 47.3783 31.9785 47.4582 31.9373C47.5381 31.8961 47.6074 31.8363 47.6605 31.7627C47.7136 31.6892 47.7489 31.604 47.7636 31.5139C47.7784 31.4239 47.7721 31.3316 47.7454 31.2445L42.9018 15.4714ZM38.6088 10.8014C38.6934 9.47993 39.7399 8.11296 41.3449 8.11296C42.9498 8.11296 43.9962 9.48022 44.081 10.803C44.1184 11.4953 43.9102 12.1783 43.4944 12.7272L41.3449 15.646L39.1994 12.733C38.7868 12.1794 38.5774 11.4958 38.6088 10.8014ZM38.1956 13.2996C38.2242 13.3419 38.2527 13.384 38.2822 13.4257L40.8885 16.965C40.9417 17.0373 41.0107 17.0959 41.09 17.1363C41.1693 17.1767 41.2568 17.1978 41.3454 17.1978C41.4341 17.1978 41.5216 17.1767 41.6009 17.1363C41.6802 17.0959 41.7492 17.0373 41.8023 16.965L42.0574 16.6188L42.7066 18.7334L33.8513 18.7355L33.2097 13.3934L38.1956 13.2996ZM20.8302 9.65447C20.0552 8.57492 19.672 7.31588 19.7513 6.10862C19.8333 4.8035 20.3776 3.57309 21.2831 2.64607C21.7442 2.1762 22.2917 1.80348 22.8942 1.54918C23.4968 1.29488 24.1426 1.164 24.7948 1.164C25.4469 1.164 26.0928 1.29488 26.6953 1.54918C27.2978 1.80348 27.8453 2.1762 28.3064 2.64607C29.2124 3.57349 29.757 4.80452 29.8389 6.11027C29.9087 7.383 29.527 8.63888 28.7635 9.64875L24.7948 15.0374L20.8302 9.65447ZM2.3093 30.8364L5.2763 22.0001L8.65432 21.9896L11.7485 26.1909C11.8017 26.2632 11.8707 26.3218 11.95 26.3622C12.0293 26.4026 12.1167 26.4236 12.2054 26.4236C12.2941 26.4236 12.3815 26.4026 12.4608 26.3622C12.5401 26.3218 12.6091 26.2632 12.6623 26.1909L15.1276 22.843L15.158 30.8364H2.3093ZM14.934 21.1673L12.2053 24.8722L9.48074 21.173C8.94512 20.4263 8.68002 19.5585 8.73466 18.7275C8.84184 17.0529 10.1694 15.3207 12.2053 15.3207C14.2412 15.3207 15.5687 17.0529 15.6761 18.7292C15.7238 19.6062 15.4604 20.4715 14.934 21.1673ZM23.9354 24.7371C23.8815 24.7912 23.8387 24.8557 23.8095 24.9269C23.7803 24.9981 23.7652 25.0745 23.7653 25.1516L23.7683 30.8364H16.3003L16.2644 21.1988C16.6787 20.4191 16.87 19.5367 16.8165 18.6518C16.6551 16.1315 14.6299 14.1571 12.206 14.1571C9.78201 14.1571 7.75689 16.1315 7.59555 18.6508C7.55215 19.3974 7.68401 20.1438 7.9802 20.8281L5.66809 20.8352L8.19656 13.3049L22.0234 13.2125L24.3386 16.3561C24.3918 16.4283 24.4607 16.487 24.5401 16.5274C24.6194 16.5678 24.7068 16.5888 24.7955 16.5888C24.8841 16.5888 24.9716 16.5678 25.0509 16.5274C25.1302 16.487 25.1992 16.4283 25.2524 16.3561L27.3537 13.5022L32.0616 13.4142L32.7789 19.3875C32.7959 19.5285 32.8629 19.6583 32.9673 19.7525C33.0718 19.8467 33.2064 19.8986 33.3459 19.8986L43.064 19.8964L44.497 24.5632L32.8951 24.5833C32.9966 24.1834 33.0347 23.7695 33.008 23.3574C32.8724 21.2398 31.1699 19.581 29.1321 19.581C27.0943 19.581 25.3918 21.2398 25.2563 23.3564C25.2304 23.7699 25.2704 24.1849 25.3747 24.5853L24.3449 24.5697C24.2691 24.5676 24.1936 24.5814 24.1232 24.6102C24.0527 24.6389 23.9889 24.6821 23.9354 24.7371ZM31.2816 25.3589L29.132 28.2777L26.9867 25.3648C26.5738 24.8113 26.3647 24.1278 26.396 23.4333C26.4806 22.1117 27.5272 20.7449 29.132 20.7449C30.7369 20.7449 31.7835 22.1121 31.8682 23.435C31.9054 24.1272 31.6972 24.81 31.2816 25.3589ZM24.9106 30.8364L24.9078 25.7419L25.8704 25.7565C25.9323 25.8586 25.9984 25.9588 26.0688 26.0571L28.6751 29.5964C28.7283 29.6687 28.7973 29.7273 28.8766 29.7677C28.9559 29.8081 29.0434 29.8292 29.132 29.8292C29.2207 29.8292 29.3081 29.8081 29.3874 29.7677C29.4667 29.7273 29.5357 29.6687 29.5889 29.5964L32.1949 26.0582C32.2693 25.9573 32.3389 25.8539 32.4036 25.7479L44.8542 25.7263L46.4232 30.8364H24.9106Z" fill="#332208"/>
</svg>
