<svg width="31" height="30" viewBox="0 0 31 30" fill="none" xmlns="http://www.w3.org/2000/svg">
<path d="M18.3608 15C18.3608 16.5857 17.08 17.8711 15.5 17.8711C13.92 17.8711 12.6392 16.5857 12.6392 15C12.6392 13.4143 13.92 12.1289 15.5 12.1289C17.08 12.1289 18.3608 13.4143 18.3608 15Z" fill="#C5AC2D"/>
<path d="M22.1905 9.92017C22.053 9.54617 21.8336 9.20765 21.5485 8.92979C21.2717 8.64368 20.9346 8.4235 20.5617 8.28548C20.2593 8.1676 19.805 8.0273 18.9682 7.98908C18.063 7.94765 17.7916 7.93872 15.5 7.93872C13.2081 7.93872 12.9367 7.94742 12.0317 7.98885C11.195 8.0273 10.7404 8.1676 10.4382 8.28548C10.0653 8.4235 9.72803 8.64368 9.45138 8.92979C9.1663 9.20765 8.9469 9.54594 8.80915 9.92017C8.69169 10.2237 8.55189 10.6798 8.5138 11.5196C8.47252 12.4278 8.46362 12.7002 8.46362 15.0002C8.46362 17.3001 8.47252 17.5724 8.5138 18.4809C8.55189 19.3206 8.69169 19.7766 8.80915 20.0801C8.9469 20.4543 9.16607 20.7926 9.45116 21.0705C9.72803 21.3566 10.0651 21.5767 10.438 21.7148C10.7404 21.8329 11.195 21.9732 12.0317 22.0114C12.9367 22.0528 13.2079 22.0615 15.4997 22.0615C17.7918 22.0615 18.0632 22.0528 18.968 22.0114C19.8047 21.9732 20.2593 21.8329 20.5617 21.7148C21.3102 21.425 21.9018 20.8313 22.1905 20.0801C22.308 19.7766 22.4478 19.3206 22.4861 18.4809C22.5274 17.5724 22.5361 17.3001 22.5361 15.0002C22.5361 12.7002 22.5274 12.4278 22.4861 11.5196C22.448 10.6798 22.3082 10.2237 22.1905 9.92017ZM15.5 19.423C13.0658 19.423 11.0926 17.4429 11.0926 15C11.0926 12.5571 13.0658 10.5771 15.5 10.5771C17.9339 10.5771 19.9071 12.5571 19.9071 15C19.9071 17.4429 17.9339 19.423 15.5 19.423ZM20.0814 11.4358C19.5126 11.4358 19.0514 10.973 19.0514 10.4022C19.0514 9.83136 19.5126 9.36856 20.0814 9.36856C20.6502 9.36856 21.1113 9.83136 21.1113 10.4022C21.1111 10.973 20.6502 11.4358 20.0814 11.4358Z" fill="#C5AC2D"/>
<path d="M15.5002 0C7.24672 0 0.553711 6.717 0.553711 15C0.553711 23.283 7.24672 30 15.5002 30C23.7536 30 30.4466 23.283 30.4466 15C30.4466 6.717 23.7536 0 15.5002 0ZM24.0309 18.5511C23.9894 19.468 23.8441 20.094 23.632 20.6419C23.1862 21.7989 22.2748 22.7135 21.1219 23.161C20.5762 23.3739 19.9522 23.5194 19.0388 23.5613C18.1236 23.6032 17.8312 23.6133 15.5004 23.6133C13.1693 23.6133 12.8772 23.6032 11.9617 23.5613C11.0483 23.5194 10.4243 23.3739 9.87859 23.161C9.30569 22.9447 8.78707 22.6057 8.35831 22.1674C7.92179 21.7374 7.58403 21.2167 7.36851 20.6419C7.15641 20.0942 7.01113 19.468 6.96962 18.5513C6.92743 17.6326 6.91763 17.3392 6.91763 15C6.91763 12.6608 6.92743 12.3674 6.9694 11.4489C7.0109 10.532 7.15595 9.90601 7.36805 9.35806C7.58357 8.78334 7.92157 8.26263 8.35831 7.83257C8.78684 7.39426 9.30569 7.05528 9.87836 6.83899C10.4243 6.62613 11.0481 6.48056 11.9617 6.43867C12.877 6.39679 13.1693 6.38672 15.5002 6.38672C17.831 6.38672 18.1234 6.39679 19.0386 6.4389C19.9522 6.48056 20.576 6.62613 21.1219 6.83876C21.6946 7.05505 22.2135 7.39426 22.6422 7.83257C23.0787 8.26286 23.4167 8.78334 23.632 9.35806C23.8444 9.90601 23.9894 10.532 24.0311 11.4489C24.0729 12.3674 24.0827 12.6608 24.0827 15C24.0827 17.3392 24.0729 17.6326 24.0309 18.5511Z" fill="#C5AC2D"/>
</svg>
