<svg width="26" height="25" viewBox="0 0 26 25" fill="none" xmlns="http://www.w3.org/2000/svg">
<path d="M13.4055 0C6.53721 0 0.950195 5.60762 0.950195 12.5C0.950195 19.3924 6.53721 25 13.4055 25C20.2737 25 25.8607 19.3924 25.8607 12.5C25.8607 5.60762 20.2737 0 13.4055 0ZM13.4055 23.9583C7.10991 23.9583 1.98812 18.8182 1.98812 12.5C1.98812 6.18184 7.10991 1.04165 13.4055 1.04165C19.701 1.04165 24.8228 6.18184 24.8228 12.5C24.8228 18.8182 19.701 23.9583 13.4055 23.9583Z" fill="#FEFEFE"/>
<path d="M18.3571 12.062L11.0915 7.37451C10.9324 7.27026 10.7266 7.26465 10.5624 7.35518C10.3951 7.44673 10.2917 7.62173 10.2917 7.81246V17.1875C10.2917 17.3782 10.3951 17.5532 10.5624 17.6448C10.6394 17.687 10.7256 17.7084 10.8107 17.7084C10.908 17.7084 11.0064 17.6809 11.0915 17.6255L18.3571 12.9379C18.5051 12.8423 18.5953 12.677 18.5953 12.5C18.5953 12.323 18.5051 12.1577 18.3571 12.062ZM11.3297 16.2333V8.76666L17.1165 12.5L11.3297 16.2333Z" fill="#FEFEFE"/>
</svg>
