<svg width="31" height="30" viewBox="0 0 31 30" fill="none" xmlns="http://www.w3.org/2000/svg">
<path d="M13.4241 17.8103L18.2858 15L13.4241 12.1897V17.8103Z" fill="#C5AC2D"/>
<path d="M15.2858 0C7.03238 0 0.339355 6.717 0.339355 15C0.339355 23.283 7.03238 30 15.2858 30C23.5393 30 30.2323 23.283 30.2323 15C30.2323 6.717 23.5393 0 15.2858 0ZM24.6251 15.0153C24.6251 15.0153 24.6251 18.0574 24.2406 19.5243C24.0251 20.3272 23.3942 20.9603 22.5942 21.1764C21.1325 21.5625 15.2858 21.5625 15.2858 21.5625C15.2858 21.5625 9.45443 21.5625 7.97748 21.161C7.17743 20.945 6.5466 20.3117 6.33108 19.5087C5.94634 18.0574 5.94634 15 5.94634 15C5.94634 15 5.94634 11.9582 6.33108 10.4913C6.54637 9.68834 7.19271 9.03969 7.97748 8.82362C9.43915 8.4375 15.2858 8.4375 15.2858 8.4375C15.2858 8.4375 21.1325 8.4375 22.5942 8.83896C23.3942 9.05502 24.0251 9.68834 24.2406 10.4913C24.6406 11.9582 24.6251 15.0153 24.6251 15.0153Z" fill="#C5AC2D"/>
</svg>
